<?xml version="1.0" standalone="no"?>
<!DOCTYPE svg PUBLIC "-//W3C//DTD SVG 20010904//EN"
 "http://www.w3.org/TR/2001/REC-SVG-20010904/DTD/svg10.dtd">
<svg version="1.0" xmlns="http://www.w3.org/2000/svg"
 width="150.000000pt" height="150.000000pt" viewBox="0 0 150.000000 150.000000"
 preserveAspectRatio="xMidYMid meet">

<g transform="translate(0.000000,150.000000) scale(0.100000,-0.100000)"
fill="#000000" stroke="none">
<path d="M396 1136 c-36 -10 -55 -11 -67 -3 -26 16 -49 1 -49 -32 0 -17 -13
-51 -30 -77 -35 -56 -55 -138 -46 -189 5 -24 20 -49 39 -67 18 -17 44 -41 58
-55 26 -25 27 -25 40 -6 8 12 32 23 58 27 42 6 43 6 37 -16 -26 -91 -47 -218
-41 -255 12 -83 91 -153 193 -169 35 -5 41 -10 37 -24 -3 -10 0 -22 6 -26 8
-4 9 -3 5 4 -4 7 -1 12 7 12 10 0 13 -7 10 -20 -6 -22 12 -28 21 -7 5 9 7 9
12 -1 5 -10 10 -8 21 8 10 14 21 19 34 15 12 -4 21 -1 25 8 5 14 48 18 69 6
19 -10 58 -2 67 15 5 9 16 16 25 16 29 0 108 51 131 85 45 65 46 114 8 278 -9
38 -16 70 -16 73 0 10 56 -10 66 -24 9 -12 12 -12 23 2 8 9 22 16 34 16 32 0
84 38 98 73 28 64 12 150 -40 231 -14 22 -24 49 -23 61 4 33 -22 51 -54 36
-19 -8 -30 -8 -47 1 -36 19 -137 13 -184 -10 -41 -21 -103 -86 -103 -108 0
-14 -61 -23 -112 -16 -28 3 -39 11 -48 32 -35 85 -159 134 -264 106z m-72 -25
c3 -5 -1 -11 -9 -15 -9 -3 -15 0 -15 9 0 16 16 20 24 6z m197 -3 c46 -16 82
-43 103 -80 15 -25 16 -32 5 -39 -22 -14 -45 -11 -60 8 -20 23 -109 63 -142
63 -27 0 -28 -2 -22 -30 5 -23 3 -32 -9 -36 -21 -8 -66 -85 -66 -112 0 -22 24
-30 35 -12 3 6 17 10 31 10 21 0 24 -3 18 -24 -9 -36 2 -47 32 -36 23 9 25 8
19 -12 -11 -35 -18 -39 -80 -45 -43 -5 -56 -3 -51 5 4 7 2 12 -3 12 -6 0 -11
-6 -12 -12 0 -10 -2 -10 -6 0 -2 6 -9 10 -14 7 -17 -11 -48 15 -59 51 -20 61
0 135 57 212 24 32 45 43 41 20 -2 -6 5 -13 14 -16 13 -2 16 3 15 25 -2 23 3
29 33 40 45 15 79 16 121 1z m582 -7 c24 -9 26 -14 17 -30 -7 -14 -7 -22 0
-26 16 -10 42 3 35 17 -4 7 11 -6 34 -29 78 -80 89 -202 23 -253 -23 -19 -36
-21 -96 -17 -51 4 -74 10 -83 23 -19 26 -16 32 15 36 23 3 27 7 24 31 -3 30
11 34 53 15 14 -6 28 -9 31 -5 14 14 -11 73 -48 113 -23 25 -35 45 -28 49 22
14 10 35 -20 35 -38 0 -90 -21 -135 -55 -36 -28 -75 -27 -75 2 0 23 75 91 113
102 37 12 100 8 140 -8z m87 3 c0 -9 -5 -14 -12 -12 -18 6 -21 28 -4 28 9 0
16 -7 16 -16z m-664 -120 c18 -14 18 -14 -6 -3 -31 14 -36 19 -24 19 6 0 19
-7 30 -16z m464 11 c0 -2 -10 -9 -22 -15 -22 -11 -22 -10 -4 4 21 17 26 19 26
11z m-294 -39 c11 -11 11 -16 1 -19 -9 -4 -8 -8 3 -16 10 -7 11 -11 3 -11 -7
0 -13 -7 -13 -15 0 -8 5 -14 11 -12 7 1 16 -14 21 -33 15 -55 26 -57 33 -6 6
34 11 46 21 42 20 -8 17 11 -3 24 -16 9 -15 10 5 5 13 -4 22 -2 22 4 0 6 -6
11 -14 11 -8 0 -18 5 -22 12 -5 8 -2 9 9 5 12 -4 17 -1 17 10 0 12 7 14 32 9
76 -15 138 -80 178 -189 46 -124 75 -306 51 -321 -5 -3 -30 1 -57 9 -51 15
-58 13 -68 -21 -5 -16 1 -24 29 -37 20 -9 43 -17 53 -17 32 -1 -39 -48 -93
-62 -68 -17 -298 -16 -350 2 -22 7 -34 15 -27 17 6 3 12 11 12 19 0 8 4 14 9
14 9 0 3 41 -8 50 -12 9 -35 65 -37 90 -2 14 -19 39 -39 57 l-36 32 17 68 c34
138 92 236 163 273 44 23 58 24 77 6z m-223 -422 c-3 -8 0 -14 7 -14 6 0 8 -5
5 -10 -4 -6 -1 -17 5 -25 6 -8 9 -19 5 -25 -3 -5 -1 -10 5 -10 6 0 9 -4 6 -8
-3 -5 3 -14 14 -22 15 -11 16 -15 5 -26 -7 -8 -15 -19 -18 -26 -8 -22 -68 45
-77 86 -4 20 -6 54 -3 76 5 36 7 38 28 28 14 -6 21 -16 18 -24z m539 -111 c-5
-23 -1 -22 -39 -11 -22 6 -33 15 -33 27 0 27 9 31 43 16 22 -9 31 -19 29 -32z"/>
<path d="M554 801 c-52 -32 -72 -123 -34 -161 30 -30 76 -26 111 9 24 25 29
38 29 80 0 42 -4 53 -26 70 -33 26 -41 26 -80 2z m61 -31 c3 -5 2 -10 -4 -10
-5 0 -13 5 -16 10 -3 6 -2 10 4 10 5 0 13 -4 16 -10z"/>
<path d="M838 799 c-42 -24 -30 -144 16 -168 61 -33 116 -4 116 61 0 86 -70
143 -132 107z m81 -45 c22 -28 20 -47 -5 -37 -9 3 -12 12 -9 23 7 23 -11 36
-22 16 -5 -10 -13 -12 -22 -7 -7 5 -10 14 -7 20 12 19 44 12 65 -15z m-56 -55
c-4 -13 0 -19 12 -19 11 0 15 5 11 15 -3 8 -1 15 4 15 6 0 10 -5 10 -11 0 -6
7 -8 16 -5 14 5 15 4 4 -9 -18 -21 -57 -19 -70 4 -14 27 -13 41 4 35 8 -3 12
-13 9 -25z"/>
<path d="M726 622 c-3 -5 -22 -12 -42 -15 -55 -9 -67 -23 -49 -57 13 -24 29
-40 95 -88 10 -7 -27 -22 -57 -22 -18 0 -33 -4 -33 -10 0 -5 11 -10 24 -10 17
0 27 -9 36 -30 10 -25 18 -30 45 -30 28 0 33 4 39 30 5 27 9 30 31 24 14 -3
25 -2 25 4 0 11 -23 22 -48 22 -9 0 -23 4 -31 9 -11 7 -2 22 45 66 56 53 58
57 40 70 -11 8 -36 18 -55 21 -20 4 -41 11 -48 16 -7 5 -13 5 -17 0z m3 -219
c0 -25 -1 -26 -9 -8 -12 27 -12 35 0 35 6 0 10 -12 9 -27z m40 20 c0 -5 -4
-17 -9 -28 -8 -18 -9 -17 -9 8 -1 15 4 27 9 27 6 0 10 -3 9 -7z"/>
<path d="M780 250 c-8 -5 -11 -13 -6 -17 5 -4 11 -2 13 5 3 6 9 10 13 7 5 -3
11 -1 15 5 8 13 -15 13 -35 0z"/>
</g>
</svg>
